<svg width="24" height="25" viewBox="0 0 24 25" fill="none" xmlns="http://www.w3.org/2000/svg">
<path fill-rule="evenodd" clip-rule="evenodd" d="M7.64645 8.49703C7.84171 8.30177 8.15829 8.30177 8.35355 8.49703L12 12.1435L15.6464 8.49703C15.8417 8.30177 16.1583 8.30177 16.3536 8.49703C16.5488 8.69229 16.5488 9.00888 16.3536 9.20414L12.7071 12.8506L16.3536 16.497C16.5488 16.6923 16.5488 17.0089 16.3536 17.2041C16.1583 17.3994 15.8417 17.3994 15.6464 17.2041L12 13.5577L8.35355 17.2041C8.15829 17.3994 7.84171 17.3994 7.64645 17.2041C7.45118 17.0089 7.45118 16.6923 7.64645 16.497L11.2929 12.8506L7.64645 9.20414C7.45118 9.00888 7.45118 8.69229 7.64645 8.49703Z" fill="#0F0F0F"/>
</svg>
