<svg width="24" height="24" viewBox="0 0 24 24" fill="none" xmlns="http://www.w3.org/2000/svg">
<g clip-path="url(#clip0_232_2813)">
<path fill-rule="evenodd" clip-rule="evenodd" d="M3.67183 4.49823C3.94905 4.19046 4.42328 4.16571 4.73104 4.44293L7.8768 7.27654C7.92474 7.31031 7.96916 7.35006 8.00885 7.39549L10.6627 9.78602C10.6675 9.79021 10.6722 9.79447 10.6769 9.7988L14.3261 13.0859C14.3308 13.09 14.3355 13.0943 14.3402 13.0986L16.9879 15.4836C17.0435 15.5213 17.0947 15.567 17.1394 15.6201L20.2732 18.4429C20.581 18.7202 20.6058 19.1944 20.3285 19.5022C20.0513 19.8099 19.5771 19.8347 19.2693 19.5574L16.4631 17.0296C15.2087 17.7102 13.7127 18.1946 12.0002 18.1946C7.19199 18.1946 4.10288 14.396 3.11393 12.9854C3.10702 12.9756 3.09989 12.9655 3.09259 12.9551C2.99236 12.8131 2.8596 12.625 2.79187 12.3588C2.73627 12.1403 2.73629 11.8599 2.79192 11.6413L3.51874 11.8263L2.79192 11.6413C2.85969 11.3751 2.99282 11.1865 3.09332 11.0442C3.10067 11.0338 3.10786 11.0236 3.11482 11.0137C3.63582 10.2708 4.68786 8.93825 6.22466 7.80716L3.72712 5.55745C3.41936 5.28022 3.3946 4.80599 3.67183 4.49823ZM7.366 8.83525C5.87698 9.86451 4.84468 11.1595 4.34292 11.8749C4.3123 11.9186 4.2907 11.9494 4.27263 11.9762C4.26628 11.9857 4.26105 11.9936 4.25675 12.0002C4.26096 12.0067 4.26605 12.0144 4.27223 12.0235C4.29018 12.0502 4.31164 12.0808 4.34214 12.1243C5.29667 13.4858 7.99248 16.6946 12.0002 16.6946C13.213 16.6946 14.3046 16.4026 15.268 15.9532L13.7784 14.6114C13.2596 14.9126 12.6483 15.0835 12.0002 15.0835C10.231 15.0835 8.65981 13.7749 8.65981 12.0002C8.65981 11.4183 8.83394 10.8799 9.12874 10.4231L7.366 8.83525ZM10.2729 11.4538C10.1988 11.6265 10.1598 11.8109 10.1598 12.0002C10.1598 12.8028 10.9081 13.5835 12.0002 13.5835C12.1952 13.5835 12.3816 13.5575 12.5556 13.5099L10.2729 11.4538ZM12.0002 7.30575C11.6611 7.30575 11.3321 7.32854 11.0134 7.37098C10.6028 7.42567 10.2257 7.13715 10.171 6.72656C10.1163 6.31597 10.4048 5.93879 10.8154 5.88411C11.1985 5.83309 11.5936 5.80575 12.0002 5.80575C16.8084 5.80575 19.8975 9.60441 20.8864 11.0149C20.8933 11.0248 20.9005 11.0349 20.9078 11.0452C21.008 11.1873 21.1408 11.3754 21.2085 11.6416C21.2641 11.8601 21.2641 12.1406 21.2084 12.3591C21.1406 12.6254 21.0073 12.8142 20.9066 12.9568C20.8993 12.9672 20.892 12.9774 20.885 12.9874C20.6105 13.3788 20.1945 13.9254 19.6437 14.5178C19.3617 14.8212 18.8872 14.8385 18.5838 14.5565C18.2804 14.2745 18.2631 13.8 18.5451 13.4966C19.0403 12.9638 19.4137 12.4729 19.657 12.1261C19.6877 12.0823 19.7094 12.0514 19.7275 12.0245C19.734 12.0149 19.7393 12.0069 19.7436 12.0002C19.7394 11.9937 19.7343 11.986 19.7281 11.9768C19.7102 11.9502 19.6887 11.9196 19.6582 11.8761C18.7037 10.5146 16.0079 7.30575 12.0002 7.30575Z" fill="#B3B3B3"/>
</g>
<defs>
<clipPath id="clip0_232_2813">
<rect width="24" height="24" fill="white"/>
</clipPath>
</defs>
</svg>
