<svg width="24" height="25" viewBox="0 0 24 25" fill="none" xmlns="http://www.w3.org/2000/svg">
<g clip-path="url(#clip0_204_3751)">
<path fill-rule="evenodd" clip-rule="evenodd" d="M8.18818 4.00049L8.2199 4.00049H15.7799L15.8116 4.00049C16.5408 4.00048 17.1334 4.00047 17.6143 4.03976C18.1109 4.08034 18.554 4.16652 18.9662 4.37652C19.6153 4.70728 20.1431 5.23506 20.4739 5.88422C20.6839 6.29635 20.7701 6.73945 20.8106 7.23606C20.8499 7.71696 20.8499 8.30962 20.8499 9.03875V9.07049V16.6305V16.6622C20.8499 17.3914 20.8499 17.984 20.8106 18.4649C20.7701 18.9615 20.6839 19.4046 20.4739 19.8168C20.1431 20.4659 19.6153 20.9937 18.9662 21.3245C18.554 21.5345 18.1109 21.6206 17.6143 21.6612C17.1334 21.7005 16.5408 21.7005 15.8116 21.7005H15.7799H8.2199H8.18816C7.45903 21.7005 6.86637 21.7005 6.38547 21.6612C5.88886 21.6206 5.44577 21.5345 5.03364 21.3245C4.38448 20.9937 3.85669 20.4659 3.52593 19.8168C3.31594 19.4046 3.22975 18.9615 3.18918 18.4649C3.14989 17.984 3.14989 17.3913 3.1499 16.6622L3.1499 16.6305V9.07049L3.1499 9.03877C3.14989 8.30963 3.14989 7.71696 3.18918 7.23606C3.22975 6.73945 3.31594 6.29635 3.52593 5.88422C3.85669 5.23506 4.38448 4.70728 5.03364 4.37652C5.44577 4.16652 5.88886 4.08034 6.38547 4.03976C6.86638 4.00047 7.45904 4.00048 8.18818 4.00049ZM6.50762 5.53478C6.10377 5.56778 5.88005 5.62874 5.71462 5.71303C5.34771 5.89998 5.04939 6.19829 4.86244 6.56521C4.77815 6.73064 4.71719 6.95436 4.6842 7.35821C4.65049 7.77081 4.6499 8.30204 4.6499 9.07049V16.6305C4.6499 17.3989 4.65049 17.9302 4.6842 18.3428C4.71719 18.7466 4.77815 18.9703 4.86244 19.1358C5.04939 19.5027 5.34771 19.801 5.71462 19.988C5.88005 20.0722 6.10377 20.1332 6.50762 20.1662C6.92023 20.1999 7.45146 20.2005 8.2199 20.2005H15.7799C16.5483 20.2005 17.0796 20.1999 17.4922 20.1662C17.896 20.1332 18.1198 20.0722 18.2852 19.988C18.6521 19.801 18.9504 19.5027 19.1374 19.1358C19.2217 18.9703 19.2826 18.7466 19.3156 18.3428C19.3493 17.9302 19.3499 17.3989 19.3499 16.6305V9.07049C19.3499 8.30204 19.3493 7.77081 19.3156 7.35821C19.2826 6.95436 19.2217 6.73064 19.1374 6.56521C18.9504 6.19829 18.6521 5.89998 18.2852 5.71303C18.1198 5.62874 17.896 5.56778 17.4922 5.53478C17.0796 5.50107 16.5484 5.50049 15.7799 5.50049H8.2199C7.45146 5.50049 6.92023 5.50107 6.50762 5.53478ZM11.2499 9.25049C11.2499 8.83628 11.5857 8.50049 11.9999 8.50049H12.0089C12.4231 8.50049 12.7589 8.83628 12.7589 9.25049C12.7589 9.6647 12.4231 10.0005 12.0089 10.0005H11.9999C11.5857 10.0005 11.2499 9.6647 11.2499 9.25049ZM11.9999 12.1005C12.4141 12.1005 12.7499 12.4363 12.7499 12.8505V16.4505C12.7499 16.8647 12.4141 17.2005 11.9999 17.2005C11.5857 17.2005 11.2499 16.8647 11.2499 16.4505V12.8505C11.2499 12.4363 11.5857 12.1005 11.9999 12.1005Z" fill="#353535"/>
</g>
<defs>
<clipPath id="clip0_204_3751">
<rect width="24" height="24" fill="white" transform="translate(0 0.850586)"/>
</clipPath>
</defs>
</svg>
