<svg width="16" height="17" viewBox="0 0 16 17" fill="none" xmlns="http://www.w3.org/2000/svg">
<g clip-path="url(#clip0_232_3199)">
<path fill-rule="evenodd" clip-rule="evenodd" d="M8 3.42529C4.96243 3.42529 2.5 5.88773 2.5 8.92529C2.5 11.9629 4.96243 14.4253 8 14.4253C11.0376 14.4253 13.5 11.9629 13.5 8.92529C13.5 5.88773 11.0376 3.42529 8 3.42529ZM1.5 8.92529C1.5 5.33544 4.41015 2.42529 8 2.42529C11.5899 2.42529 14.5 5.33544 14.5 8.92529C14.5 12.5151 11.5899 15.4253 8 15.4253C4.41015 15.4253 1.5 12.5151 1.5 8.92529ZM8 6.02529C8.27614 6.02529 8.5 6.24915 8.5 6.52529V8.92529C8.5 9.20144 8.27614 9.42529 8 9.42529C7.72386 9.42529 7.5 9.20144 7.5 8.92529V6.52529C7.5 6.24915 7.72386 6.02529 8 6.02529ZM7.5 11.3253C7.5 11.0492 7.72386 10.8253 8 10.8253H8.006C8.28214 10.8253 8.506 11.0492 8.506 11.3253C8.506 11.6014 8.28214 11.8253 8.006 11.8253H8C7.72386 11.8253 7.5 11.6014 7.5 11.3253Z" fill="#F0483D"/>
</g>
<defs>
<clipPath id="clip0_232_3199">
<rect width="16" height="16" fill="white" transform="translate(0 0.925293)"/>
</clipPath>
</defs>
</svg>
