<svg width="20" height="20" viewBox="0 0 20 20" fill="none" xmlns="http://www.w3.org/2000/svg">
<g clip-path="url(#clip0_195_1580)">
<path fill-rule="evenodd" clip-rule="evenodd" d="M6.07356 3.37476L6.09999 3.37476H13.9L13.9264 3.37476C14.534 3.37475 15.0279 3.37474 15.4287 3.40749C15.8425 3.4413 16.2118 3.51312 16.5552 3.68811C17.0962 3.96375 17.536 4.40357 17.8116 4.94453C17.9826 5.28012 18.0551 5.64035 18.0899 6.04274C18.1287 6.15313 18.1349 6.27064 18.1109 6.38185C18.125 6.71999 18.125 7.11418 18.125 7.57331V7.59976V12.3998V12.4262C18.125 13.0338 18.125 13.5277 18.0923 13.9284C18.0585 14.3423 17.9866 14.7115 17.8116 15.055C17.536 15.5959 17.0962 16.0358 16.5552 16.3114C16.2118 16.4864 15.8425 16.5582 15.4287 16.592C15.0279 16.6248 14.5341 16.6248 13.9264 16.6248H13.9H6.09999H6.07354C5.46593 16.6248 4.97205 16.6248 4.5713 16.592C4.15746 16.5582 3.78821 16.4864 3.44477 16.3114C2.9038 16.0358 2.46398 15.5959 2.18835 15.055C2.01336 14.7115 1.94154 14.3423 1.90772 13.9284C1.87498 13.5277 1.87499 13.0338 1.87499 12.4262L1.87499 12.3998V7.59976L1.87499 7.57332C1.87499 7.11419 1.87498 6.71999 1.88911 6.38185C1.86509 6.27064 1.8713 6.15313 1.9101 6.04274C1.94487 5.64035 2.01736 5.28012 2.18835 4.94453C2.46398 4.40357 2.9038 3.96375 3.44477 3.68811C3.78821 3.51312 4.15746 3.4413 4.5713 3.40749C4.97205 3.37474 5.46594 3.37475 6.07356 3.37476ZM3.12502 7.45018C3.125 7.49882 3.12499 7.54866 3.12499 7.59976V12.3998C3.12499 13.0401 3.12548 13.4828 3.15357 13.8267C3.18107 14.1632 3.23186 14.3496 3.30211 14.4875C3.4579 14.7933 3.70649 15.0418 4.01226 15.1976C4.15012 15.2679 4.33655 15.3187 4.67309 15.3462C5.01693 15.3743 5.45962 15.3748 6.09999 15.3748H13.9C14.5404 15.3748 14.9831 15.3743 15.3269 15.3462C15.6634 15.3187 15.8499 15.2679 15.9877 15.1976C16.2935 15.0418 16.5421 14.7933 16.6979 14.4875C16.7681 14.3496 16.8189 14.1632 16.8464 13.8267C16.8745 13.4828 16.875 13.0401 16.875 12.3998V7.59976C16.875 7.54866 16.875 7.49881 16.875 7.45018L11.7347 11.0484C11.7079 11.0672 11.6813 11.0858 11.6551 11.1042C11.2386 11.3964 10.8989 11.6347 10.514 11.7307C10.1765 11.8148 9.82351 11.8148 9.48602 11.7307C9.10106 11.6347 8.76138 11.3964 8.34487 11.1042C8.31865 11.0858 8.29213 11.0672 8.26527 11.0484L3.12502 7.45018ZM16.8234 5.96046L11.0179 10.0243C10.4797 10.4011 10.3418 10.4853 10.2116 10.5178C10.0727 10.5524 9.92732 10.5524 9.78836 10.5178C9.65818 10.4853 9.52033 10.4011 8.9821 10.0243L3.17658 5.96046C3.20584 5.75194 3.24826 5.61771 3.30211 5.51202C3.4579 5.20626 3.70649 4.95766 4.01226 4.80187C4.15012 4.73163 4.33655 4.68083 4.67309 4.65334C5.01693 4.62524 5.45962 4.62476 6.09999 4.62476H13.9C14.5404 4.62476 14.9831 4.62524 15.3269 4.65334C15.6634 4.68083 15.8499 4.73163 15.9877 4.80187C16.2935 4.95767 16.5421 5.20626 16.6979 5.51202C16.7517 5.61771 16.7941 5.75194 16.8234 5.96046Z" fill="#555555"/>
</g>
<defs>
<clipPath id="clip0_195_1580">
<rect width="20" height="20" fill="white"/>
</clipPath>
</defs>
</svg>
