<svg width="148" height="32" viewBox="0 0 148 32" fill="none" xmlns="http://www.w3.org/2000/svg">
<path d="M136.958 25.4961C136.958 23.4222 138.642 21.7396 140.715 21.7396C142.789 21.7396 144.47 23.4222 144.47 25.4961C144.47 27.57 142.789 29.2515 140.715 29.2515C138.642 29.2515 136.958 27.57 136.958 25.4961Z" fill="#353535"/>
<path d="M17.1571 15.5442C17.1571 13.1648 16.6974 11.3996 15.7778 10.2496C14.8571 9.10068 13.4625 8.52675 11.5875 8.52675H9.593V23.0769H11.119C13.2016 23.0769 14.7278 22.4594 15.6995 21.2203C16.6701 19.9834 17.1571 18.0909 17.1571 15.5442ZM24.2702 15.2964C24.2702 19.6312 23.1049 22.9714 20.7745 25.3159C18.444 27.6616 15.168 28.8345 10.9451 28.8345H2.73962V2.85938H11.5179C15.5897 2.85938 18.7331 3.92568 20.9483 6.05721C23.1625 8.18982 24.2702 11.2681 24.2702 15.2964Z" fill="#353535"/>
<path d="M47.0001 28.839H53.5295V2.75519H47.0001V28.839Z" fill="#353535"/>
<path d="M62.6982 19.1027C62.6982 20.7657 62.9156 22.0342 63.3493 22.9059C63.7841 23.7787 64.5123 24.2146 65.5362 24.2146C66.5492 24.2146 67.2656 23.7787 67.6829 22.9059C68.1003 22.0342 68.308 20.7657 68.308 19.1027C68.308 17.4483 68.097 16.2005 67.6742 15.3581C67.2503 14.5135 66.5276 14.0906 65.5027 14.0906C64.5005 14.0906 63.7841 14.5113 63.3493 15.3483C62.9156 16.1863 62.6982 17.4374 62.6982 19.1027ZM74.9537 19.1027C74.9537 22.2712 74.1232 24.7429 72.4579 26.5146C70.7938 28.2875 68.4645 29.1744 65.47 29.1744C62.5982 29.1744 60.3122 28.2679 58.6155 26.4548C56.9166 24.6418 56.0677 22.1918 56.0677 19.1027C56.0677 15.944 56.8994 13.4896 58.5646 11.7396C60.2297 9.98956 62.5645 9.11456 65.571 9.11456C67.4287 9.11456 69.0722 9.52002 70.4961 10.3298C71.9211 11.1396 73.0211 12.2994 73.7939 13.8103C74.5678 15.319 74.9537 17.0842 74.9537 19.1027Z" fill="#353535"/>
<path d="M77.547 28.8334H84.0775V18.8508V9.45831H77.547V28.8334Z" fill="#353535"/>
<path d="M77.547 7.11631H84.0775V2.75H77.547V7.11631Z" fill="#353535"/>
<path d="M97.3079 23.8938C98.1894 23.8938 99.2393 23.6699 100.464 23.2254V28.1004C99.5839 28.4873 98.747 28.7645 97.9513 28.9286C97.1557 29.0949 96.2219 29.1775 95.1535 29.1775C92.961 29.1775 91.3806 28.6265 90.4099 27.5265C89.4436 26.4265 88.9589 24.7373 88.9589 22.458V14.471H86.672V9.46226H88.9589V4.51441L95.5394 3.36981V9.46226H99.7058V14.471H95.5394V22.0123C95.5394 23.2667 96.1296 23.8938 97.3079 23.8938Z" fill="#353535"/>
<path d="M112.423 23.8938C113.305 23.8938 114.355 23.6699 115.58 23.2254V28.1004C114.701 28.4873 113.863 28.7645 113.067 28.9286C112.27 29.0949 111.34 29.1775 110.269 29.1775C108.077 29.1775 106.496 28.6265 105.528 27.5265C104.559 26.4265 104.075 24.7373 104.075 22.458V14.471H101.786V9.46226H104.075V4.43942L110.654 3.36981V9.46226H114.822V14.471H110.654V22.0123C110.654 23.2667 111.244 23.8938 112.423 23.8938Z" fill="#353535"/>
<path d="M123.824 16.7418C123.913 15.6809 124.217 14.9037 124.734 14.407C125.254 13.9113 125.895 13.6635 126.663 13.6635C127.499 13.6635 128.165 13.9417 128.658 14.5026C129.155 15.0602 129.414 15.807 129.434 16.7418H123.824ZM133.033 11.3983C131.481 9.87655 129.279 9.11456 126.43 9.11456C123.435 9.11456 121.131 9.98956 119.516 11.7396C117.902 13.4896 117.094 16.0005 117.094 19.2722C117.094 22.4407 117.967 24.8842 119.708 26.5994C121.45 28.3146 123.897 29.1733 127.048 29.1733C128.561 29.1733 129.864 29.0701 130.955 28.8647C132.04 28.6614 133.09 28.294 134.108 27.7635L133.105 23.3972C132.365 23.6994 131.66 23.932 130.995 24.0853C130.034 24.3081 128.98 24.4201 127.832 24.4201C126.573 24.4201 125.58 24.1124 124.852 23.4972C124.123 22.8809 123.735 22.0309 123.691 20.9483H135.362V17.9733C135.362 15.1113 134.586 12.919 133.033 11.3983Z" fill="#353535"/>
<path d="M32.9337 16.7418C33.0228 15.6809 33.3261 14.9037 33.8434 14.407C34.3619 13.9113 35.0044 13.6635 35.773 13.6635C36.6077 13.6635 37.2729 13.9417 37.7675 14.5026C38.2642 15.0602 38.5218 15.807 38.5447 16.7418H32.9337ZM42.1436 11.3983C40.5904 9.87655 38.3891 9.11456 35.5392 9.11456C32.5435 9.11456 30.2402 9.98956 28.626 11.7396C27.0119 13.4896 26.2032 16.0005 26.2032 19.2722C26.2032 22.4407 27.075 24.8842 28.8185 26.5994C30.5598 28.3146 33.0065 29.1733 36.1576 29.1733C37.6707 29.1733 38.9728 29.0701 40.0641 28.8647C41.1489 28.6614 42.1991 28.294 43.2186 27.7635L42.2143 23.3972C41.474 23.6994 40.7696 23.932 40.1055 24.0853C39.1425 24.3081 38.0892 24.4201 36.9412 24.4201C35.6837 24.4201 34.6893 24.1124 33.961 23.4972C33.2316 22.8809 32.8447 22.0309 32.8002 20.9483H44.4718V17.9733C44.4718 15.1113 43.6958 12.919 42.1436 11.3983Z" fill="#353535"/>
</svg>
