<svg width="24" height="25" viewBox="0 0 24 25" fill="none" xmlns="http://www.w3.org/2000/svg">
<path fill-rule="evenodd" clip-rule="evenodd" d="M8 4.87109C7.13805 4.87109 6.3114 5.2135 5.7019 5.823C5.09241 6.43249 4.75 7.25914 4.75 8.12109V16.1211C4.75 16.983 5.09241 17.8097 5.7019 18.4192C6.3114 19.0287 7.13805 19.3711 8 19.3711H16C16.862 19.3711 17.6886 19.0287 18.2981 18.4192C18.9076 17.8097 19.25 16.983 19.25 16.1211V8.12109C19.25 7.25914 18.9076 6.43249 18.2981 5.823C17.6886 5.2135 16.862 4.87109 16 4.87109H8ZM4.64124 4.76234C5.53204 3.87154 6.74022 3.37109 8 3.37109H16C17.2598 3.37109 18.468 3.87154 19.3588 4.76234C20.2496 5.65313 20.75 6.86132 20.75 8.12109V16.1211C20.75 17.3809 20.2496 18.5891 19.3588 19.4799C18.468 20.3706 17.2598 20.8711 16 20.8711H8C6.74022 20.8711 5.53204 20.3706 4.64124 19.4799C3.75044 18.5891 3.25 17.3809 3.25 16.1211V8.12109C3.25 6.86132 3.75044 5.65313 4.64124 4.76234ZM16.5 6.87109C16.9142 6.87109 17.25 7.20688 17.25 7.62109V7.63109C17.25 8.04531 16.9142 8.38109 16.5 8.38109C16.0858 8.38109 15.75 8.04531 15.75 7.63109V7.62109C15.75 7.20688 16.0858 6.87109 16.5 6.87109ZM9.34835 9.46944C10.0516 8.76618 11.0054 8.37109 12 8.37109C12.9946 8.37109 13.9484 8.76618 14.6517 9.46944C15.3549 10.1727 15.75 11.1265 15.75 12.1211C15.75 13.1157 15.3549 14.0695 14.6517 14.7727C13.9484 15.476 12.9946 15.8711 12 15.8711C11.0054 15.8711 10.0516 15.476 9.34835 14.7727C8.64509 14.0695 8.25 13.1157 8.25 12.1211C8.25 11.1265 8.64509 10.1727 9.34835 9.46944ZM12 9.87109C11.4033 9.87109 10.831 10.1081 10.409 10.5301C9.98705 10.9521 9.75 11.5244 9.75 12.1211C9.75 12.7178 9.98705 13.2901 10.409 13.7121C10.831 14.134 11.4033 14.3711 12 14.3711C12.5967 14.3711 13.169 14.134 13.591 13.7121C14.0129 13.2901 14.25 12.7178 14.25 12.1211C14.25 11.5244 14.0129 10.9521 13.591 10.5301C13.169 10.1081 12.5967 9.87109 12 9.87109Z" fill="#353535"/>
</svg>
