<svg width="24" height="25" viewBox="0 0 24 25" fill="none" xmlns="http://www.w3.org/2000/svg">
<path fill-rule="evenodd" clip-rule="evenodd" d="M21.4959 3.55846C21.7062 3.74383 21.7956 4.03103 21.7276 4.30301L17.7276 20.303C17.6621 20.5651 17.4606 20.7718 17.2002 20.8439C16.9398 20.916 16.6607 20.8425 16.4697 20.6514L12.0812 16.2629L9.6 19.5711C9.43263 19.7943 9.15522 19.9061 8.87987 19.8614C8.60451 19.8167 8.37671 19.6229 8.28849 19.3583L6.38673 13.653L2.66459 11.7919C2.39926 11.6593 2.23706 11.3827 2.25081 11.0863C2.26456 10.79 2.45169 10.5296 2.72817 10.4221L20.7282 3.4221C20.9895 3.32049 21.2856 3.37309 21.4959 3.55846ZM12.5395 14.5999C12.5339 14.5942 12.5283 14.5885 12.5225 14.5829L12.0607 14.1211L15.5303 10.6514C15.8232 10.3585 15.8232 9.88367 15.5303 9.59078C15.2374 9.29788 14.7626 9.29788 14.4697 9.59078L10.4697 13.5908C10.1768 13.8837 10.1768 14.3585 10.4697 14.6514L11.0097 15.1915L9.25886 17.526L7.71152 12.8839C7.64862 12.6952 7.51333 12.5392 7.33541 12.4503L4.84865 11.2069L19.9208 5.34551L16.5937 18.6541L12.5395 14.5999Z" fill="#353535"/>
</svg>
