<svg width="24" height="25" viewBox="0 0 24 25" fill="none" xmlns="http://www.w3.org/2000/svg">
<path fill-rule="evenodd" clip-rule="evenodd" d="M1.25 6.12109C1.25 5.70688 1.58579 5.37109 2 5.37109H6C6.41421 5.37109 6.75 5.70688 6.75 6.12109V11.1211C6.75 11.983 7.09241 12.8097 7.7019 13.4192C8.13134 13.8486 8.66857 14.1455 9.25 14.2834V6.12109C9.25 5.70688 9.58579 5.37109 10 5.37109H14C14.4142 5.37109 14.75 5.70688 14.75 6.12109V9.68235C15.344 9.46843 15.8794 9.10752 16.3032 8.62759C16.9133 7.9367 17.25 7.04676 17.25 6.12507C17.25 5.71087 17.5858 5.37509 18 5.37509H22C22.2247 5.37509 22.4375 5.47582 22.58 5.64957C22.7224 5.82332 22.7795 6.05178 22.7355 6.2721L22.3935 7.9831L22.3934 7.98319C22.1662 9.11927 21.6825 10.1885 20.9792 11.1092C20.568 11.6475 20.0882 12.1267 19.5534 12.5355C20.0591 12.8535 20.5176 13.2455 20.9125 13.7008C21.628 14.5256 22.1086 15.5276 22.3039 16.6019L22.3039 16.602L22.7379 18.991C22.7777 19.2098 22.7183 19.435 22.5758 19.6057C22.4333 19.7764 22.2224 19.8751 22 19.8751H18C17.5858 19.8751 17.25 19.5393 17.25 19.1251C17.25 18.2034 16.9133 17.3135 16.3032 16.6226C15.8866 16.1508 15.3621 15.794 14.78 15.5788V19.1291C14.78 19.3621 14.6717 19.5819 14.4869 19.7238C14.325 19.8483 14.1204 19.9005 13.9207 19.8711H10C7.67936 19.8711 5.45376 18.9492 3.81282 17.3083C2.17187 15.6673 1.25 13.4417 1.25 11.1211V6.12109ZM13.28 18.3711V14.6291C13.28 14.414 13.3723 14.2093 13.5336 14.0669C13.6948 13.9245 13.9094 13.8582 14.1229 13.8849C15.4003 14.0443 16.5755 14.6648 17.4276 15.6298C18.1127 16.4056 18.551 17.3612 18.6965 18.3751H21.1015L20.8281 16.8703C20.6809 16.0606 20.3187 15.3054 19.7794 14.6837C19.2402 14.062 18.5437 13.5968 17.7629 13.3366C17.4751 13.2408 17.2734 12.9809 17.2519 12.6783C17.2304 12.3757 17.3933 12.0899 17.6646 11.9543C18.4966 11.5383 19.2226 10.9378 19.7872 10.1987C20.3518 9.45949 20.7401 8.60114 20.9225 7.68909C20.9226 7.68906 20.9226 7.68903 20.9226 7.68899L21.0853 6.87509H18.6965C18.551 7.88896 18.1127 8.84456 17.4276 9.62044C16.5755 10.5854 15.4003 11.2059 14.1229 11.3653C14.0921 11.3692 14.061 11.3711 14.03 11.3711H14C13.5858 11.3711 13.25 11.0353 13.25 10.6211V6.87109H10.75V15.1211C10.75 15.32 10.671 15.5108 10.5303 15.6514C10.3897 15.7921 10.1989 15.8711 10 15.8711C8.74022 15.8711 7.53204 15.3706 6.64124 14.4799C5.75044 13.5891 5.25 12.3809 5.25 11.1211V6.87109H2.75V11.1211C2.75 13.0439 3.51384 14.888 4.87348 16.2476C6.23311 17.6073 8.07718 18.3711 10 18.3711H13.28Z" fill="#353535"/>
</svg>
